<?xml version="1.0" standalone="no"?>
<!DOCTYPE svg PUBLIC "-//W3C//DTD SVG 20010904//EN"
 "http://www.w3.org/TR/2001/REC-SVG-20010904/DTD/svg10.dtd">
<svg version="1.0" xmlns="http://www.w3.org/2000/svg"
 width="800.000000pt" height="450.000000pt" viewBox="0 0 800.000000 450.000000"
 preserveAspectRatio="xMidYMid meet">
<metadata>
Created by potrace 1.16, written by Peter Selinger 2001-2019
</metadata>
<g transform="translate(0.000000,450.000000) scale(0.100000,-0.100000)"
fill="#000000" stroke="none">
<path d="M2705 2798 c-2 -13 -4 -88 -2 -167 2 -104 6 -146 15 -149 6 -2 12 -9
12 -15 0 -8 -4 -7 -12 1 -7 7 -16 12 -22 12 -5 0 -6 -3 -3 -7 4 -3 0 -17 -9
-31 -11 -16 -13 -32 -8 -50 l7 -27 7 30 c6 25 8 26 9 7 2 -38 34 -23 45 21 7
26 15 37 28 37 14 0 16 6 12 30 -4 17 -4 30 0 30 4 0 29 -11 56 -25 139 -70
558 -164 735 -165 55 0 87 -19 109 -64 12 -25 30 -43 52 -52 20 -8 40 -28 50
-47 24 -48 55 -77 81 -77 21 0 23 5 23 44 0 31 5 46 16 50 28 11 34 6 34 -26
0 -25 -3 -29 -10 -18 -17 26 -11 1 9 -35 14 -26 20 -31 25 -20 3 8 10 15 16
15 13 0 4 -118 -20 -270 -10 -63 -21 -150 -25 -192 -8 -85 -28 -120 -39 -67
-4 23 -2 35 10 44 13 9 15 20 9 51 -4 21 -9 46 -10 56 -2 17 16 144 35 257 6
35 9 66 6 69 -9 8 -26 -48 -26 -86 0 -20 -10 -86 -21 -147 -12 -60 -25 -150
-29 -200 -5 -49 -12 -121 -16 -160 -6 -66 -17 -90 -36 -79 -4 3 -8 47 -8 97
l0 92 -18 -31 c-34 -62 -63 -102 -76 -107 -26 -10 -301 14 -400 34 -205 43
-345 115 -384 198 -14 30 -22 36 -47 36 -37 0 -45 10 -45 54 0 46 -9 35 -16
-20 -8 -66 -11 -70 -37 -64 -23 6 -24 4 -30 -62 -3 -45 -1 -70 6 -75 6 -4 41
-10 77 -14 36 -4 71 -7 78 -8 7 -1 29 -19 50 -39 45 -44 171 -110 244 -128 29
-7 58 -17 65 -21 18 -14 271 -46 369 -47 37 -1 75 -8 100 -20 40 -20 65 -24
122 -22 24 1 35 7 44 26 11 24 70 50 101 43 6 -1 58 12 115 31 131 42 207 95
231 163 9 26 7 28 -37 44 -109 38 -101 31 -99 85 1 27 4 49 7 49 3 0 5 42 4
93 -1 93 15 157 40 157 6 0 2 7 -8 15 -18 14 -18 16 -3 33 9 9 16 26 16 37 1
58 1 58 54 52 27 -4 54 -11 61 -16 8 -7 19 -2 35 15 24 24 51 32 51 14 0 -5
-5 -10 -11 -10 -5 0 -7 -4 -4 -10 3 -5 -2 -21 -11 -35 -16 -25 -16 -30 0 -81
19 -61 30 -71 20 -19 -5 29 -3 35 11 35 10 0 23 16 33 40 18 43 28 48 46 26
21 -26 52 -28 64 -4 l11 23 0 -25 c1 -14 5 -31 10 -39 7 -10 11 -5 16 18 11
53 34 56 143 23 167 -52 274 -77 452 -106 19 -4 44 -8 55 -10 11 -2 30 -4 43
-5 16 -1 29 -15 48 -54 20 -40 35 -57 58 -65 19 -7 39 -26 51 -49 20 -37 76
-83 101 -83 10 0 14 15 14 50 0 45 2 50 25 56 32 8 35 5 42 -45 3 -23 9 -41
13 -41 12 0 67 66 75 89 3 11 22 29 41 40 19 12 43 35 52 52 32 59 51 77 89
84 62 11 200 53 233 70 17 9 40 13 51 10 27 -9 49 11 49 44 0 15 4 31 10 37
15 15 34 166 26 208 -5 25 -25 55 -71 103 -35 37 -67 64 -70 61 -4 -4 3 -28
14 -53 23 -53 27 -121 9 -160 -22 -49 -157 -99 -333 -126 -103 -15 -431 -15
-560 0 -380 45 -651 138 -716 245 -25 41 -24 80 6 144 13 28 21 52 18 52 -4 0
-2 5 5 12 15 15 16 118 1 118 -6 0 -23 -8 -37 -19 -74 -52 -234 -102 -409
-128 -165 -24 -555 -24 -748 0 -390 50 -643 138 -692 243 -19 39 -40 44 -48
12z m1763 -507 c-2 -60 -6 -113 -10 -117 -11 -10 -68 16 -68 31 0 8 -7 20 -15
28 -14 15 -9 52 16 118 9 22 42 44 73 48 4 1 7 -48 4 -108z"/>
<path d="M5270 2560 c-19 -4 -45 -12 -58 -19 -22 -12 -23 -14 -7 -31 34 -37
102 -54 219 -55 113 0 156 11 156 40 0 42 -199 83 -310 65z"/>
<path d="M4912 1483 c-34 -13 -55 -117 -32 -153 7 -11 10 -1 10 36 0 65 17 83
64 66 18 -7 39 -12 48 -12 8 0 27 -9 42 -21 23 -18 26 -28 26 -80 0 -46 -3
-59 -15 -59 -8 0 -15 9 -15 20 0 11 -4 20 -9 20 -5 0 -16 3 -25 6 -11 4 -16 1
-16 -10 0 -24 -19 -19 -29 8 -11 27 -41 43 -41 21 0 -8 -7 -15 -15 -15 -19 0
-19 -10 2 -40 63 -91 173 -100 223 -18 26 42 25 81 -1 136 -29 60 -96 102
-158 101 -26 0 -52 -3 -59 -6z"/>
<path d="M6025 1363 c-4 -21 -13 -51 -20 -68 -8 -16 -23 -66 -34 -110 -20 -79
-16 -111 9 -80 7 8 22 15 34 15 49 0 68 12 63 38 -3 13 0 40 5 59 12 45 4 70
-17 53 -24 -20 -30 -4 -27 66 4 71 -2 83 -13 27z"/>
<path d="M4585 1282 c-6 -66 -23 -103 -33 -74 -5 16 -27 15 -39 0 -6 -7 -13
-41 -16 -76 -6 -75 2 -83 106 -93 58 -5 75 -12 125 -48 51 -37 91 -59 199
-107 17 -8 55 -19 84 -24 29 -6 58 -15 63 -20 6 -6 36 -10 69 -10 32 0 66 -4
76 -9 10 -6 59 -11 110 -12 68 -2 94 -6 100 -17 10 -17 75 -42 113 -42 15 0
39 5 54 10 22 9 26 15 21 38 -6 28 -5 29 61 41 77 15 180 62 213 97 16 17 24
40 27 79 2 30 2 55 -2 55 -4 0 -29 -11 -56 -25 -55 -28 -174 -62 -235 -68 -38
-4 -40 -6 -43 -42 -3 -33 -6 -36 -25 -31 -12 3 -25 6 -29 6 -5 0 -8 20 -8 45
0 39 -3 45 -25 51 -16 4 -25 13 -25 25 0 32 -17 21 -34 -22 l-17 -42 -100 7
c-330 21 -591 123 -628 245 -10 36 -14 40 -31 31 -10 -5 -29 -10 -41 -10 -18
0 -21 4 -16 29 3 15 2 41 -2 57 -7 24 -9 17 -16 -44z"/>
</g>
</svg>
