<?xml version="1.0" standalone="no"?>
<!DOCTYPE svg PUBLIC "-//W3C//DTD SVG 20010904//EN"
 "http://www.w3.org/TR/2001/REC-SVG-20010904/DTD/svg10.dtd">
<svg version="1.0" xmlns="http://www.w3.org/2000/svg"
 width="442.000000pt" height="265.000000pt" viewBox="0 0 442.000000 265.000000"
 preserveAspectRatio="xMidYMid meet">
<metadata>
Created by potrace 1.16, written by Peter Selinger 2001-2019
</metadata>
<g transform="translate(0.000000,265.000000) scale(0.100000,-0.100000)"
fill="#000000" stroke="none">
<path d="M1834 2537 c-55 -56 -121 -128 -148 -160 -28 -31 -56 -57 -63 -57
-33 0 -239 -78 -333 -126 -91 -46 -304 -179 -365 -227 -11 -9 -67 -53 -125
-99 -58 -45 -114 -90 -124 -100 -27 -25 -33 -23 -75 22 -54 59 -146 90 -266
90 l-93 0 -79 -63 c-77 -62 -116 -115 -109 -149 2 -10 0 -18 -4 -18 -35 0 -45
-356 -15 -522 9 -52 20 -100 24 -106 3 -6 35 -13 69 -17 34 -3 156 -28 270
-55 318 -76 437 -105 692 -165 412 -96 621 -146 765 -180 120 -29 743 -175
815 -191 13 -3 38 -7 55 -9 17 -3 49 -11 72 -19 23 -8 63 -18 90 -22 26 -3 55
-10 64 -15 9 -4 34 -9 55 -10 21 -1 95 -15 163 -31 68 -16 130 -27 138 -24 8
3 12 2 9 -2 -3 -5 63 -24 147 -42 84 -18 204 -48 267 -67 91 -28 513 -135 664
-169 l29 -7 -6 64 c-5 51 -24 214 -26 227 -1 2 -5 0 -11 -3 -5 -3 -7 0 -4 9 9
22 -60 211 -133 364 -66 139 -106 205 -151 254 -24 26 -24 28 -9 70 8 24 21
81 27 128 7 48 27 121 46 166 51 125 62 197 60 379 -2 171 -10 205 -48 205
-24 0 -114 -34 -318 -121 -76 -32 -139 -54 -145 -49 -5 5 -40 20 -77 33 -36
14 -103 47 -148 73 -46 26 -89 47 -96 47 -7 0 -11 4 -9 7 3 4 -23 22 -58 40
-34 19 -76 41 -93 51 -37 21 -203 83 -294 111 -36 11 -120 42 -187 70 -68 27
-128 46 -135 42 -6 -4 -8 -3 -4 4 8 14 -164 78 -264 98 -52 10 -68 21 -89 62
-27 53 -121 168 -135 164 -6 -2 -8 0 -4 3 9 9 -47 89 -85 121 -18 15 -41 24
-61 24 -29 0 -46 -13 -132 -103z m244 -109 c55 -70 104 -141 110 -157 14 -39
58 -65 146 -87 82 -19 176 -53 328 -118 59 -24 187 -72 284 -106 196 -68 244
-90 415 -191 64 -38 147 -82 185 -99 38 -17 86 -40 106 -50 53 -28 73 -26 189
26 113 50 275 114 290 114 14 0 10 -228 -6 -302 -7 -37 -30 -107 -49 -155 -19
-50 -41 -130 -50 -185 -8 -53 -20 -106 -25 -117 -25 -46 -13 -93 40 -161 56
-71 129 -218 203 -405 26 -66 54 -135 63 -154 8 -19 17 -65 20 -103 5 -58 4
-68 -10 -68 -54 0 -389 80 -572 136 -80 24 -220 59 -517 129 -87 20 -158 41
-158 46 0 6 -15 16 -34 24 -19 8 -37 19 -41 25 -16 25 -26 268 -15 362 18 159
33 193 114 255 62 49 72 53 121 53 77 0 178 -34 212 -71 15 -17 40 -43 54 -57
15 -15 42 -52 62 -83 41 -66 92 -108 110 -90 9 9 9 16 -1 29 -7 9 -18 28 -24
42 -7 14 -27 45 -44 70 -17 25 -41 66 -53 92 -45 95 -136 140 -298 146 l-103
4 -72 -55 c-40 -30 -81 -63 -90 -74 -26 -28 -55 -121 -69 -215 -12 -81 -7
-347 7 -396 8 -27 28 -28 -191 9 -125 21 -294 60 -1887 436 l-707 167 -11 50
c-22 97 -25 322 -6 416 25 121 36 141 106 194 l63 48 86 -4 c102 -4 174 -34
206 -85 11 -18 27 -35 36 -38 9 -3 28 -27 42 -53 30 -55 91 -122 112 -122 22
0 28 20 12 38 -23 26 -66 135 -59 148 4 7 41 40 82 74 288 240 539 390 788
471 97 31 132 47 143 64 20 33 242 266 251 263 4 -2 51 -60 106 -130z"/>
<path d="M1344 1474 c-38 -19 -64 -62 -64 -108 0 -71 29 -99 100 -99 75 0 110
35 110 113 0 54 -14 79 -55 96 -43 17 -52 17 -91 -2z"/>
<path d="M1634 1295 c-15 -23 -15 -27 3 -62 10 -20 30 -46 45 -56 32 -23 116
-33 168 -20 32 8 36 7 55 -20 40 -59 68 -72 159 -72 86 0 116 11 116 44 0 32
-22 41 -100 41 -88 0 -101 8 -119 77 -15 53 -47 66 -87 34 -20 -16 -41 -21
-86 -21 -57 0 -59 1 -70 30 -18 52 -58 64 -84 25z"/>
<path d="M2723 1047 c-47 -14 -80 -55 -88 -107 -5 -38 -3 -49 15 -67 17 -19
32 -23 79 -23 77 0 91 15 91 102 0 86 -30 115 -97 95z"/>
</g>
</svg>
