<?xml version="1.0" standalone="no"?>
<!DOCTYPE svg PUBLIC "-//W3C//DTD SVG 20010904//EN"
 "http://www.w3.org/TR/2001/REC-SVG-20010904/DTD/svg10.dtd">
<svg version="1.0" xmlns="http://www.w3.org/2000/svg"
 width="800.000000pt" height="900.000000pt" viewBox="0 0 800.000000 900.000000"
 preserveAspectRatio="xMidYMid meet">
<metadata>
Created by potrace 1.16, written by Peter Selinger 2001-2019
</metadata>
<g transform="translate(0.000000,900.000000) scale(0.100000,-0.100000)"
fill="#000000" stroke="none">
<path d="M4860 8828 c-81 -92 -189 -170 -328 -238 l-132 -65 0 -53 c0 -30 3
-52 8 -50 4 2 90 45 192 96 170 85 191 98 260 167 l75 75 18 -22 c11 -13 58
-64 106 -113 78 -80 94 -92 142 -104 275 -70 542 -162 737 -256 96 -46 149
-77 307 -181 18 -12 35 -8 155 42 114 46 139 53 159 44 21 -10 23 -15 17 -58
-3 -26 -10 -205 -16 -399 l-9 -352 23 -68 c13 -37 40 -108 59 -158 19 -49 40
-115 47 -146 11 -49 16 -57 44 -67 44 -16 76 -15 76 2 0 8 6 17 13 19 8 4 6 6
-4 6 -13 1 -17 16 -22 74 -5 68 -64 256 -127 402 -19 43 -19 57 -11 193 10
168 3 628 -11 655 -9 18 -57 24 -74 8 -12 -13 -281 -111 -303 -111 -9 0 -48
19 -86 43 -273 169 -629 318 -855 358 -67 12 -79 17 -120 58 -25 26 -66 70
-91 99 -55 67 -160 152 -185 151 -11 -1 -39 -24 -64 -51z"/>
<path d="M4470 7982 c0 -5 -12 -15 -26 -23 -35 -18 -47 -53 -34 -95 15 -44 45
-64 97 -64 84 0 122 88 68 155 -9 11 -13 14 -10 7 6 -11 3 -11 -14 0 -12 7
-21 16 -21 20 0 5 -13 8 -30 8 -16 0 -30 -4 -30 -8z"/>
<path d="M5420 7665 c-71 -75 33 -199 116 -140 28 19 48 69 40 100 -4 14 -21
34 -39 45 -45 28 -88 26 -117 -5z"/>
</g>
</svg>
