<?xml version="1.0" standalone="no"?>
<!DOCTYPE svg PUBLIC "-//W3C//DTD SVG 20010904//EN"
 "http://www.w3.org/TR/2001/REC-SVG-20010904/DTD/svg10.dtd">
<svg version="1.0" xmlns="http://www.w3.org/2000/svg"
 width="720.000000pt" height="720.000000pt" viewBox="0 0 720.000000 720.000000"
 preserveAspectRatio="xMidYMid meet">
<metadata>
Created by potrace 1.16, written by Peter Selinger 2001-2019
</metadata>
<g transform="translate(0.000000,720.000000) scale(0.100000,-0.100000)"
fill="#000000" stroke="none">
<path d="M3275 7194 c-321 -33 -701 -121 -963 -225 -40 -16 -79 -26 -85 -23
-7 4 -9 3 -4 -1 10 -11 -51 -37 -67 -28 -6 3 -8 3 -4 -2 10 -10 -91 -57 -105
-48 -6 4 -7 1 -2 -7 6 -10 4 -12 -9 -7 -11 5 -15 3 -10 -5 5 -8 2 -9 -10 -5
-11 5 -15 3 -10 -5 5 -8 2 -9 -10 -5 -11 5 -15 3 -10 -5 5 -8 2 -9 -10 -5 -9
4 -15 3 -12 -1 3 -5 -16 -19 -42 -31 -79 -39 -232 -130 -345 -208 -60 -41
-106 -69 -102 -63 3 5 1 10 -4 10 -6 0 -11 -6 -11 -14 0 -14 -61 -66 -77 -66
-4 0 -1 5 7 11 13 9 13 10 0 6 -8 -2 -15 -10 -15 -18 -1 -8 -7 -13 -14 -11 -7
1 -10 -1 -7 -6 3 -5 -12 -23 -34 -41 -40 -32 -56 -39 -44 -19 4 7 3 8 -5 4 -6
-4 -9 -11 -7 -15 3 -4 -11 -23 -32 -42 l-37 -34 30 34 30 34 -37 -27 c-21 -16
-36 -32 -33 -36 2 -4 -5 -16 -16 -26 -12 -11 -22 -17 -23 -14 -3 7 -60 -42
-70 -60 -5 -8 11 3 35 25 24 22 -10 -15 -76 -83 -115 -118 -134 -135 -119
-110 16 26 -17 -5 -36 -35 -22 -32 -22 -32 -1 -8 12 13 24 22 26 19 6 -6 -38
-48 -66 -62 -12 -6 -24 -18 -26 -26 -3 -11 -1 -11 10 3 8 9 18 17 22 17 5 0
-2 -11 -15 -25 -13 -14 -29 -25 -36 -25 -7 0 -18 -10 -24 -22 -11 -23 -11 -23
6 -3 10 12 15 14 12 5 -3 -8 -17 -21 -31 -28 -15 -7 -27 -18 -27 -25 0 -7 4
-6 10 3 5 8 10 10 10 4 0 -14 -25 -36 -33 -28 -3 3 -10 -5 -17 -18 -11 -22
-10 -22 4 -4 24 30 19 9 -6 -24 -12 -17 -27 -30 -34 -30 -6 0 -19 -11 -28 -25
-24 -36 -19 -40 9 -8 19 21 18 16 -6 -19 -18 -27 -40 -48 -48 -48 -14 0 -14
-1 -1 -10 13 -8 11 -11 -7 -16 -13 -4 -23 -11 -23 -16 0 -5 5 -6 12 -2 7 4 8
3 4 -4 -4 -7 -14 -12 -22 -12 -8 0 -14 -5 -14 -11 0 -5 5 -7 11 -4 6 4 5 -2
-3 -14 -7 -12 -20 -21 -28 -21 -11 0 -12 -2 -2 -8 9 -6 8 -13 -6 -28 -10 -10
-19 -21 -19 -24 -7 -26 -18 -40 -32 -41 -9 0 -11 -3 -4 -5 16 -7 -17 -64 -37
-64 -13 0 -13 -1 0 -10 11 -7 11 -10 2 -10 -7 0 -10 -4 -7 -10 3 -5 -2 -10
-12 -11 -11 0 -13 -3 -5 -6 9 -4 8 -12 -5 -34 -10 -16 -21 -29 -25 -29 -4 0
-4 -7 -1 -17 4 -11 3 -14 -5 -9 -8 4 -10 2 -6 -7 3 -8 -2 -21 -10 -30 -8 -8
-12 -17 -9 -21 4 -3 1 -6 -6 -6 -7 0 -9 -4 -6 -10 3 -5 -2 -10 -12 -10 -15 0
-16 -2 -3 -10 12 -8 12 -10 -5 -10 -17 0 -17 -2 -5 -10 13 -8 12 -10 -2 -10
-11 0 -18 -7 -18 -17 0 -16 2 -16 11 -3 9 12 10 12 5 -3 -3 -10 -6 -21 -6 -23
0 -2 -7 -4 -15 -4 -8 0 -15 -5 -15 -11 0 -5 4 -8 9 -5 5 4 7 -3 4 -14 -3 -11
-9 -17 -14 -14 -5 3 -6 -1 -3 -9 3 -8 -2 -21 -10 -30 -8 -8 -13 -17 -10 -19 2
-3 -1 -19 -7 -37 -7 -21 -14 -29 -19 -21 -5 8 -9 7 -13 -4 -3 -8 -1 -16 4 -18
7 -2 7 -13 0 -31 -7 -19 -15 -26 -23 -21 -10 6 -10 4 0 -8 10 -13 10 -18 1
-24 -8 -5 -10 -3 -4 7 7 12 5 12 -6 1 -12 -11 -12 -14 1 -22 14 -9 7 -14 -12
-11 -5 0 -8 -4 -8 -9 0 -6 4 -10 9 -10 5 0 -1 -35 -15 -78 -31 -101 -79 -305
-95 -404 -7 -42 -15 -75 -18 -73 -3 2 -6 -16 -6 -38 -1 -23 -7 -106 -14 -184
-20 -209 -10 -662 19 -848 25 -163 78 -400 119 -532 20 -63 25 -93 17 -96 -8
-3 -7 -9 3 -18 12 -12 13 -12 6 0 -6 10 -4 12 4 7 9 -6 9 -11 0 -22 -10 -12
-10 -14 0 -12 14 3 65 -117 56 -132 -3 -5 -1 -10 4 -12 11 -4 73 -140 66 -146
-3 -3 -5 0 -5 6 0 7 -4 12 -10 12 -5 0 -7 -7 -4 -15 4 -8 14 -15 23 -15 14 0
14 -2 1 -10 -13 -8 -12 -10 3 -10 10 0 15 -4 12 -10 -3 -5 -1 -10 6 -10 7 0
10 -3 6 -6 -3 -4 1 -13 9 -21 8 -9 13 -22 10 -30 -4 -9 -2 -11 6 -7 8 5 9 2 5
-10 -4 -9 -3 -15 1 -12 5 3 16 -10 25 -29 12 -25 13 -35 4 -39 -7 -2 -4 -5 6
-5 10 -1 15 -5 12 -11 -3 -5 0 -10 7 -10 9 0 9 -3 -2 -10 -13 -9 -13 -10 0
-10 20 0 57 -60 38 -61 -7 0 -4 -4 7 -9 14 -6 15 -9 5 -10 -9 -1 -6 -5 8 -11
13 -5 20 -13 17 -19 -3 -5 -2 -10 2 -10 5 0 14 -9 21 -21 8 -12 9 -18 3 -14
-6 3 -11 1 -11 -4 0 -6 6 -11 14 -11 7 0 27 -23 44 -51 18 -27 27 -47 22 -44
-6 3 -10 1 -10 -4 0 -6 6 -11 14 -11 7 0 21 -11 30 -25 18 -27 22 -49 5 -25
-9 13 -10 13 -6 0 2 -8 9 -15 15 -15 6 0 17 -6 24 -14 10 -10 10 -12 1 -7 -7
4 -13 2 -13 -3 0 -6 6 -11 13 -11 7 0 32 -26 57 -57 24 -32 37 -52 27 -44 -11
9 -17 10 -17 2 0 -6 10 -15 23 -20 21 -9 105 -101 91 -101 -4 0 -13 8 -21 18
-13 15 -13 15 -3 -5 6 -13 16 -23 23 -23 14 0 67 -51 67 -64 0 -4 -12 6 -26
21 l-26 28 22 -33 c12 -18 25 -30 29 -27 10 5 43 -29 36 -37 -7 -7 196 -209
205 -203 9 6 42 -30 35 -37 -3 -3 11 -17 32 -32 l38 -27 -35 30 c-19 17 -31
31 -27 31 12 0 202 -164 200 -172 -2 -4 2 -7 9 -5 7 1 12 -4 13 -12 0 -8 7
-16 15 -18 13 -4 13 -3 0 6 -8 6 -10 11 -4 11 16 0 35 -25 26 -34 -4 -5 0 -7
8 -5 22 5 62 -20 54 -33 -4 -7 -3 -8 4 -4 7 4 17 4 23 0 8 -4 7 -9 -2 -15 -10
-6 -8 -8 6 -7 11 1 49 -17 84 -40 60 -40 95 -66 61 -47 -13 8 -13 7 -1 -8 15
-18 26 -23 16 -7 -10 16 -5 14 115 -55 62 -36 122 -67 132 -71 10 -3 16 -10
13 -15 -3 -5 2 -6 11 -2 13 5 15 3 9 -7 -5 -8 -4 -11 3 -7 15 10 43 -3 35 -16
-3 -5 -1 -7 5 -4 13 9 134 -48 124 -58 -4 -5 -2 -5 4 -2 16 9 77 -17 67 -28
-5 -4 -3 -5 3 -2 15 9 76 -12 69 -23 -3 -5 0 -12 6 -16 8 -4 9 -3 5 4 -10 17
-10 17 134 -33 209 -71 609 -161 740 -166 l35 -2 -35 -6 c-19 -4 170 -7 420
-7 250 0 439 3 420 7 l-35 6 33 2 c69 2 294 43 447 81 184 45 368 106 539 179
66 28 124 47 129 44 6 -4 7 -1 2 7 -6 10 -4 12 9 7 11 -5 15 -3 10 5 -5 8 -2
9 10 5 11 -5 15 -3 10 5 -5 8 -2 9 10 5 9 -4 15 -3 12 2 -7 11 22 23 36 14 7
-4 8 -1 3 7 -6 10 -4 12 9 7 11 -5 15 -3 10 5 -5 8 -1 9 12 4 10 -4 15 -4 12
0 -4 3 47 38 113 76 66 37 154 91 194 118 76 51 92 59 79 38 -4 -6 4 -3 18 8
14 10 24 21 22 23 -2 2 -10 -2 -19 -9 -8 -7 -15 -10 -15 -7 0 11 73 56 82 51
5 -3 7 -1 6 4 -2 5 22 29 52 53 30 24 48 35 40 25 -14 -18 -14 -19 8 -7 13 7
21 15 18 19 -7 6 33 52 46 52 5 0 6 -5 2 -12 -4 -7 -3 -8 5 -4 6 4 9 11 7 15
-3 4 8 21 24 36 17 16 30 23 30 16 0 -7 5 -9 10 -6 6 4 8 10 5 14 -2 5 4 16
15 26 11 10 20 15 20 11 0 -14 130 107 181 168 50 60 50 60 -23 -14 -41 -41
-94 -93 -118 -115 -25 -22 11 18 80 88 118 120 139 140 125 117 -17 -27 7 -5
35 32 21 28 23 34 7 16 -50 -54 -38 -27 15 32 29 33 58 60 65 60 7 0 17 10 23
23 10 20 10 20 -3 4 -8 -9 -17 -17 -21 -17 -4 0 9 20 29 45 21 25 41 42 46 40
4 -3 13 5 20 17 12 22 11 22 -7 8 -18 -14 -18 -14 -5 2 7 10 20 18 27 18 8 0
14 5 14 11 0 5 -4 7 -10 4 -6 -3 -10 -4 -10 0 0 3 11 10 25 15 14 5 25 15 25
22 0 9 -3 8 -10 -2 -5 -8 -10 -11 -10 -7 0 16 33 57 46 57 8 0 14 5 14 11 0 5
-5 7 -12 3 -7 -4 -8 -3 -4 4 4 7 15 12 24 12 15 0 15 2 2 10 -12 8 -11 11 8
16 18 5 20 9 10 15 -10 7 -7 11 10 15 12 4 22 11 22 16 0 5 -5 6 -11 2 -7 -4
-3 8 7 26 10 18 28 36 39 40 11 5 14 9 7 9 -19 1 4 41 24 41 9 0 14 7 13 18
-2 9 4 31 14 47 9 17 16 23 17 15 0 -13 1 -13 10 0 6 9 5 17 -3 22 -8 5 -8 8
-1 8 6 0 11 6 11 13 1 23 49 107 58 100 4 -5 5 -3 2 4 -4 6 -1 17 6 25 8 7 12
19 9 27 -3 8 0 11 7 7 7 -5 9 -1 5 8 -4 11 0 16 12 16 16 0 17 2 4 10 -12 8
-12 10 5 10 17 0 17 2 5 10 -13 8 -12 10 3 10 10 0 17 7 17 18 0 15 -2 15 -11
2 -9 -12 -10 -12 -5 3 3 10 6 21 6 23 0 3 4 3 9 -1 5 -3 12 -1 16 5 3 5 2 10
-4 10 -6 0 -8 7 -4 16 5 13 8 13 15 2 7 -9 8 -6 5 10 -6 26 52 187 68 189 10
2 38 73 31 80 -2 2 -8 -10 -14 -26 -6 -17 -13 -31 -16 -31 -3 0 1 17 8 37 8
21 18 37 23 36 6 -1 15 14 21 33 5 19 6 32 1 28 -5 -3 -9 -11 -9 -19 0 -8 -4
-16 -9 -19 -5 -4 -4 10 1 29 6 19 14 32 19 30 4 -3 10 2 13 11 9 23 7 36 -3
30 -15 -10 16 92 33 109 20 20 21 32 2 16 -12 -10 -13 -8 -9 8 3 12 9 19 13
16 4 -3 11 2 14 11 3 8 2 12 -4 9 -6 -3 -10 4 -10 17 0 16 3 19 9 10 6 -10 10
-9 14 7 3 13 1 19 -5 14 -8 -4 -9 6 -4 33 4 21 18 104 30 184 14 89 25 133 27
115 3 -16 5 175 5 425 0 250 -3 442 -7 425 l-7 -30 -1 30 c-1 17 -12 97 -26
179 -29 174 -27 159 -16 152 5 -4 7 3 4 15 -4 12 -8 16 -13 10 -3 -6 -14 24
-24 66 -10 43 -31 120 -46 171 -16 50 -24 92 -19 92 5 0 9 4 9 10 0 5 -3 9 -7
9 -20 -3 -27 2 -13 11 13 8 13 11 1 22 -11 11 -13 11 -6 -1 6 -10 4 -12 -4 -7
-9 6 -9 11 1 24 10 12 10 14 0 8 -8 -5 -16 2 -23 21 -7 18 -7 29 0 31 5 2 7
10 4 18 -4 11 -8 12 -13 4 -5 -8 -12 0 -19 21 -6 18 -9 34 -7 37 3 2 -2 11
-10 19 -8 9 -13 22 -10 30 4 9 2 11 -6 7 -8 -5 -9 2 -4 22 4 17 3 24 -2 16 -6
-9 -12 -6 -20 13 -14 31 -15 46 -2 25 8 -13 10 -12 10 3 0 10 -7 17 -17 17
-15 0 -16 2 -3 10 12 8 12 10 -5 10 -17 0 -17 2 -5 10 13 8 12 10 -3 10 -10 0
-15 5 -12 10 3 6 1 10 -6 10 -7 0 -10 3 -6 6 3 4 -1 13 -9 21 -8 9 -13 22 -10
30 4 9 2 11 -6 7 -8 -5 -9 -2 -5 9 3 10 2 17 -3 17 -5 0 -16 13 -25 29 -11 23
-12 31 -2 34 7 3 4 6 -6 6 -10 1 -15 6 -12 11 3 6 0 10 -7 10 -9 0 -9 3 2 10
13 9 13 10 0 10 -22 0 -55 56 -38 63 8 4 7 6 -3 6 -13 1 -39 35 -27 36 2 0 -7
11 -20 25 -16 18 -19 26 -10 32 10 6 9 8 -3 8 -9 0 -30 23 -47 51 -18 27 -27
47 -22 44 6 -3 10 -1 10 4 0 6 -6 11 -14 11 -7 0 -21 11 -30 25 -18 27 -22 49
-5 25 9 -13 10 -13 6 0 -2 8 -9 15 -15 15 -6 0 -17 6 -24 14 -10 10 -10 12 0
7 6 -4 12 -2 12 3 0 6 -6 11 -13 11 -13 0 -57 52 -57 67 0 4 5 1 11 -7 9 -13
10 -13 6 0 -2 8 -9 14 -15 13 -5 -1 -18 7 -27 17 -10 11 -13 20 -7 20 6 0 13
-6 15 -12 4 -10 6 -10 6 0 1 7 -9 16 -22 21 -23 9 -56 41 -42 41 4 0 14 -8 22
-17 13 -16 13 -16 3 5 -6 12 -17 22 -24 22 -7 0 -23 11 -36 25 -13 14 -20 25
-15 25 4 0 14 -8 22 -17 10 -13 13 -14 10 -3 -2 8 -15 21 -29 30 -14 8 -91 83
-169 165 -79 83 -119 128 -89 100 30 -27 63 -59 72 -70 10 -11 17 -15 18 -9 0
12 -131 132 -135 124 -2 -3 -12 3 -24 14 -11 10 -18 22 -16 26 3 4 -12 20 -33
36 l-37 27 30 -33 c17 -18 -6 -3 -50 34 -44 38 -79 72 -77 77 1 5 -3 8 -10 7
-7 -2 -12 3 -13 11 0 8 -7 16 -15 18 -13 4 -13 3 0 -6 8 -6 11 -11 7 -11 -16
0 -77 52 -77 66 0 8 -5 14 -11 14 -5 0 -7 -5 -4 -10 4 -6 -42 22 -102 63 -113
78 -266 169 -345 208 -26 12 -45 26 -42 31 3 4 -3 5 -12 1 -12 -4 -15 -3 -10
5 5 8 1 10 -10 5 -12 -4 -15 -3 -10 5 5 8 1 10 -10 5 -12 -4 -15 -3 -10 5 5 8
1 10 -10 5 -13 -5 -15 -3 -9 7 5 8 4 11 -2 7 -14 -9 -115 38 -105 48 4 5 2 5
-4 2 -16 -9 -77 17 -67 28 5 4 3 5 -4 1 -6 -3 -45 7 -85 23 -205 81 -515 162
-773 202 -118 18 -192 22 -470 24 -181 2 -348 1 -370 -1z m547 -993 c309 -80
546 -310 645 -628 l28 -88 0 -1340 0 -1340 -22 -80 c-83 -303 -298 -533 -589
-633 -101 -35 -187 -45 -328 -40 -111 5 -145 10 -226 37 -296 97 -514 325
-603 631 -21 74 -22 83 -25 998 l-3 922 209 0 c197 0 211 1 236 21 29 23 33
54 10 87 -15 22 -19 22 -235 22 l-219 0 0 69 0 70 221 3 c205 3 222 4 235 22
18 26 18 56 -2 84 -15 22 -19 22 -235 22 l-219 0 0 70 0 70 215 0 c202 0 216
1 235 20 24 24 26 57 4 88 -15 22 -19 22 -236 22 l-221 0 6 88 c27 408 351
757 762 822 88 13 268 4 357 -19z m-1241 -2697 l24 -26 6 -356 c5 -353 6 -358
33 -447 108 -354 377 -609 733 -697 124 -30 322 -30 446 0 311 77 561 286 690
579 65 146 70 186 76 570 l6 351 24 26 c34 36 88 36 122 0 24 -26 24 -26 27
-287 2 -144 -2 -311 -7 -372 -37 -383 -242 -706 -572 -903 -129 -78 -303 -136
-466 -157 l-53 -7 0 -334 0 -334 158 0 c126 0 162 -3 180 -16 29 -20 30 -76 2
-104 -19 -19 -33 -20 -410 -20 -377 0 -391 1 -410 20 -24 24 -26 77 -3 102 14
16 34 18 180 18 l163 0 0 334 0 334 -52 7 c-518 66 -916 431 -1025 939 -11 52
-16 161 -20 406 l-5 336 27 32 c35 42 89 45 126 6z"/>
</g>
</svg>
