<?xml version="1.0" standalone="no"?>
<!DOCTYPE svg PUBLIC "-//W3C//DTD SVG 20010904//EN"
 "http://www.w3.org/TR/2001/REC-SVG-20010904/DTD/svg10.dtd">
<svg version="1.0" xmlns="http://www.w3.org/2000/svg"
 width="1600.000000pt" height="900.000000pt" viewBox="0 0 1600.000000 900.000000"
 preserveAspectRatio="xMidYMid meet">
<metadata>
Created by potrace 1.16, written by Peter Selinger 2001-2019
</metadata>
<g transform="translate(0.000000,900.000000) scale(0.100000,-0.100000)"
fill="#000000" stroke="none">
<path d="M4685 7857 c-12 -14 -14 -68 -3 -61 7 5 12 -10 9 -28 0 -5 5 -7 12
-5 6 1 11 -5 9 -13 -2 -8 -1 -12 3 -8 4 4 14 1 22 -7 16 -17 108 -21 98 -5
-15 25 18 6 48 -27 33 -36 36 -36 110 -37 41 -1 73 2 71 5 -2 4 3 9 11 13 19
7 20 55 1 62 -8 3 -37 1 -65 -4 -28 -5 -48 -6 -46 -2 3 4 -5 10 -16 13 -18 5
-21 11 -16 35 11 57 -26 66 -105 26 -41 -21 -52 -23 -59 -12 -5 7 -9 18 -9 23
0 6 -5 3 -10 -5 -8 -13 -10 -12 -10 3 0 19 -22 47 -37 47 -4 -1 -12 -6 -18
-13z"/>
<path d="M12834 7785 c-32 -32 -29 -71 8 -98 22 -17 33 -18 60 -11 27 8 35 17
43 48 8 35 7 40 -18 62 -36 31 -62 30 -93 -1z"/>
</g>
</svg>
