<?xml version="1.0" standalone="no"?>
<!DOCTYPE svg PUBLIC "-//W3C//DTD SVG 20010904//EN"
 "http://www.w3.org/TR/2001/REC-SVG-20010904/DTD/svg10.dtd">
<svg version="1.0" xmlns="http://www.w3.org/2000/svg"
 width="1600.000000pt" height="900.000000pt" viewBox="0 0 1600.000000 900.000000"
 preserveAspectRatio="xMidYMid meet">
<metadata>
Created by potrace 1.16, written by Peter Selinger 2001-2019
</metadata>
<g transform="translate(0.000000,900.000000) scale(0.100000,-0.100000)"
fill="#000000" stroke="none">
<path d="M4303 8477 c-78 -40 -181 -107 -313 -205 l-58 -43 -48 31 c-45 28
-53 30 -153 30 -100 0 -106 -1 -153 -31 -117 -75 -142 -151 -132 -391 8 -162
17 -188 67 -188 l26 0 -6 159 c-6 168 4 256 35 313 24 43 99 71 167 63 81 -10
109 -23 152 -68 39 -41 107 -134 115 -159 3 -7 12 -9 22 -5 18 7 19 39 1 108
-6 22 3 35 68 100 44 43 124 106 191 149 l115 75 1 53 c0 28 -3 52 -7 52 -5 0
-45 -19 -90 -43z"/>
<path d="M12306 8479 c-44 -22 -107 -59 -140 -82 -33 -23 -86 -60 -117 -82
-149 -104 -297 -226 -385 -318 -100 -106 -184 -208 -184 -226 0 -6 -9 -18 -19
-28 -28 -26 -58 -192 -40 -225 45 -86 110 -131 209 -147 104 -17 186 -13 274
13 45 13 111 31 147 41 36 9 104 39 150 66 l84 49 -78 0 c-67 0 -86 -4 -139
-31 -81 -41 -234 -79 -317 -79 -112 0 -207 38 -254 102 -18 25 -19 31 -8 70
33 108 73 171 174 271 104 103 452 371 465 358 2 -2 25 12 50 32 83 63 146
106 185 127 36 20 37 22 37 75 0 30 -3 55 -7 55 -5 0 -44 -18 -87 -41z"/>
<path d="M12085 3707 c-324 -227 -500 -386 -552 -497 -17 -36 -37 -85 -44
-108 -11 -39 -10 -45 8 -70 47 -64 142 -102 254 -102 83 0 236 38 317 79 34
17 69 31 77 31 9 0 41 12 71 26 38 18 54 31 54 45 0 17 -8 19 -75 19 l-75 0
-2 299 -3 299 -30 -21z"/>
</g>
</svg>
