<?xml version="1.0" standalone="no"?>
<!DOCTYPE svg PUBLIC "-//W3C//DTD SVG 20010904//EN"
 "http://www.w3.org/TR/2001/REC-SVG-20010904/DTD/svg10.dtd">
<svg version="1.0" xmlns="http://www.w3.org/2000/svg"
 width="1600.000000pt" height="900.000000pt" viewBox="0 0 1600.000000 900.000000"
 preserveAspectRatio="xMidYMid meet">
<metadata>
Created by potrace 1.16, written by Peter Selinger 2001-2019
</metadata>
<g transform="translate(0.000000,900.000000) scale(0.100000,-0.100000)"
fill="#000000" stroke="none">
<path d="M5789 7774 c-53 -16 -131 -92 -156 -152 -18 -44 -28 -262 -16 -361 8
-63 9 -65 42 -74 39 -10 56 5 40 34 -13 25 -13 348 0 379 18 44 44 68 101 94
61 29 86 31 159 15 51 -11 90 -45 193 -170 l37 -44 -13 50 c-21 81 -69 155
-132 202 -56 42 -59 43 -133 42 -42 0 -97 -7 -122 -15z"/>
<path d="M13472 7296 c-124 -129 -155 -183 -155 -278 0 -133 64 -205 202 -227
94 -15 310 -1 421 28 187 48 373 127 424 180 l27 28 -55 12 -54 12 -124 -60
c-223 -110 -431 -162 -592 -149 -101 9 -169 55 -182 125 -9 48 11 132 45 184
33 53 147 172 179 188 14 7 22 21 22 36 0 21 -5 25 -28 25 -23 0 -48 -20 -130
-104z"/>
<path d="M13527 2768 c-87 -90 -123 -145 -138 -213 -28 -125 35 -201 177 -213
161 -12 369 39 591 148 68 33 127 60 131 60 17 0 62 41 62 56 0 10 -13 14 -45
14 l-45 0 0 110 0 110 -331 0 -332 0 -70 -72z"/>
</g>
</svg>
